<svg xmlns="http://www.w3.org/2000/svg" viewBox="0 -0.5 55 30" shape-rendering="crispEdges">
<metadata>Made with Pixels to Svg https://codepen.io/shshaw/pen/XbxvNj</metadata>
<path stroke="#3f1a4d" d="M6 0h1M22 0h1M31 0h1M39 0h1M6 1h1M22 1h1M31 1h1M38 1h1M6 2h1M22 2h1M31 2h1M38 2h1M6 3h1M13 3h1M22 3h1M31 3h1M38 3h1M47 3h1M6 4h1M14 4h1M22 4h1M31 4h1M38 4h1M47 4h1M6 5h1M15 5h1M22 5h1M25 5h1M31 5h1M38 5h1M47 5h1M6 6h1M15 6h1M22 6h1M26 6h1M31 6h1M38 6h1M47 6h1M6 7h1M15 7h1M22 7h1M27 7h1M38 7h1M6 8h1M15 8h1M22 8h1M28 8h1M38 8h1M6 9h1M15 9h1M22 9h1M29 9h1M38 9h1M6 10h1M14 10h1M22 10h1M30 10h1M38 10h1M47 10h1M6 11h1M13 11h1M22 11h1M31 11h1M38 11h1M47 11h1M6 12h1M22 12h1M31 12h1M38 12h1M47 12h1M6 13h1M22 13h1M31 13h1M38 13h1M47 13h1M6 14h1M22 14h1M31 14h1M38 14h1M47 14h1M3 19h1M19 19h1M35 19h1M51 19h1M3 20h1M7 20h1M19 20h1M23 20h1M35 20h1M39 20h1M51 20h1M3 21h1M7 21h1M15 21h1M19 21h1M23 21h1M31 21h1M35 21h1M39 21h1M47 21h1M51 21h1M3 22h1M7 22h1M15 22h1M19 22h1M23 22h1M31 22h1M35 22h1M39 22h1M47 22h1M51 22h1M3 23h1M7 23h1M15 23h1M19 23h1M23 23h1M31 23h1M35 23h1M39 23h1M47 23h1M51 23h1M3 24h1M7 24h1M15 24h1M19 24h1M23 24h1M31 24h1M35 24h1M39 24h1M47 24h1M51 24h1M3 25h1M7 25h1M15 25h1M19 25h1M23 25h1M31 25h1M35 25h1M39 25h1M47 25h1M51 25h1M3 26h1M7 26h1M19 26h1M23 26h1M35 26h1M39 26h1M51 26h1M3 27h1M19 27h1M35 27h1M51 27h1" />
<path stroke="#792c7c" d="M7 0h8M23 0h2M32 0h2M40 0h9M7 1h9M23 1h2M32 1h2M39 1h11M7 13h9M23 13h2M32 13h2M39 13h2M48 13h2M7 14h8M23 14h2M32 14h2M39 14h2M48 14h2M4 19h1M20 19h1M36 19h1M52 19h1M4 20h1M16 20h1M20 20h1M32 20h1M36 20h1M48 20h1M52 20h1M4 21h1M8 21h1M16 21h1M20 21h1M24 21h1M32 21h1M36 21h1M40 21h1M48 21h1M52 21h1M4 22h1M8 22h1M16 22h1M20 22h1M24 22h1M32 22h1M36 22h1M40 22h1M48 22h1M52 22h1M4 23h1M8 23h1M16 23h1M20 23h1M24 23h1M32 23h1M36 23h1M40 23h1M48 23h1M52 23h1M4 24h1M8 24h1M16 24h1M20 24h1M24 24h1M32 24h1M36 24h1M40 24h1M48 24h1M52 24h1M4 25h1M8 25h1M16 25h1M20 25h1M24 25h1M32 25h1M36 25h1M40 25h1M48 25h1M52 25h1M4 26h1M16 26h1M20 26h1M32 26h1M36 26h1M48 26h1M52 26h1M4 27h1M20 27h1M36 27h1M52 27h1" />
<path stroke="#8a3485" d="M7 2h10M23 2h3M32 2h2M39 2h11M7 3h2M14 3h4M23 3h4M32 3h2M39 3h2M48 3h2M7 11h2M14 11h4M23 11h2M32 11h2M39 11h2M48 11h2M7 12h10M23 12h2M32 12h2M39 12h2M48 12h2" />
<path stroke="#993c87" d="M7 4h2M15 4h3M23 4h5M32 4h2M39 4h2M48 4h2M7 10h2M15 10h3M23 10h2M31 10h3M39 10h2M48 10h2" />
<path stroke="#a34190" d="M7 5h2M16 5h2M23 5h2M26 5h3M32 5h2M39 5h2M48 5h2M7 9h2M16 9h2M23 9h2M30 9h4M39 9h11" />
<path stroke="#b3508d" d="M7 6h2M16 6h2M23 6h2M27 6h3M32 6h2M39 6h2M48 6h2M7 8h2M16 8h2M23 8h2M29 8h5M39 8h11" />
<path stroke="#bc6295" d="M7 7h2M16 7h2M23 7h2M28 7h6M39 7h11" />
<path stroke="#212870" d="M0 17h1M17 17h1M33 17h1M49 17h1M0 18h1M15 18h2M31 18h2M47 18h2M7 19h1M14 19h1M23 19h1M30 19h1M39 19h1M46 19h1M8 20h1M13 20h1M24 20h1M29 20h1M40 20h1M45 20h1M9 21h1M25 21h1M41 21h1M10 22h1M26 22h1M42 22h1M11 23h1M27 23h1M43 23h1M10 24h1M26 24h1M42 24h1M9 25h1M25 25h1M41 25h1M8 26h1M13 26h1M24 26h1M29 26h1M40 26h1M45 26h1M7 27h1M14 27h1M23 27h1M30 27h1M39 27h1M46 27h1M0 28h1M15 28h2M31 28h2M47 28h2M0 29h1M17 29h1M33 29h1M49 29h1" />
<path stroke="#2c488f" d="M1 17h6M18 17h6M34 17h5M50 17h5M1 18h8M17 18h8M33 18h8M49 18h6M8 19h2M15 19h2M24 19h2M31 19h2M40 19h2M47 19h2M9 20h2M14 20h2M25 20h2M30 20h2M41 20h2M46 20h2M10 21h5M26 21h5M42 21h5M11 22h3M27 22h3M43 22h3M12 23h1M28 23h1M44 23h1M11 24h3M27 24h3M43 24h3M10 25h5M26 25h5M42 25h5M9 26h2M14 26h2M25 26h2M30 26h2M41 26h2M46 26h2M8 27h2M15 27h2M24 27h2M31 27h2M40 27h2M47 27h2M1 28h8M17 28h8M33 28h8M49 28h6M1 29h6M18 29h6M34 29h5M50 29h5" />
</svg>