<svg xmlns="http://www.w3.org/2000/svg" viewBox="0 -0.5 32 32" shape-rendering="crispEdges">
<metadata>Made with Pixels to Svg https://codepen.io/shshaw/pen/XbxvNj</metadata>
<!-- <path stroke="#8ba4b4" d="M14 4h4M12 5h2M18 5h2M11 6h1M20 6h1M10 7h1M21 7h1M9 8h1M22 8h1M9 9h1M22 9h1M9 10h1M22 10h1M9 11h1M22 11h1M9 12h1M22 12h1M9 13h1M22 13h1M9 14h1M22 14h1M9 15h1M22 15h1M9 16h1M22 16h1M9 17h1M22 17h1M10 18h1M21 18h1M10 19h1M21 19h1M10 20h2M20 20h2M9 21h1M22 21h1M8 22h1M23 22h1M8 23h1M23 23h1M6 24h2M24 24h2M4 25h2M26 25h2M3 26h1M28 26h1M3 27h1M28 27h1M2 28h1M29 28h1M2 29h1M29 29h1M2 30h1M29 30h1M2 31h28" /> -->
<path stroke="#3e2115" d="M14 5h4M12 6h8M11 7h10M10 8h12M10 9h12M10 10h2M20 10h2M10 11h1M21 11h1M10 12h1M21 12h1M10 13h1M21 13h1" />
<path stroke="#b47548" d="M12 10h8M11 11h10M11 12h10M11 13h10M10 14h3M14 14h4M19 14h3M10 15h3M14 15h4M19 15h3M10 16h12M10 17h12M11 18h10M11 19h10M12 20h8M13 21h6M14 22h4" />
<path stroke="#0d171f" d="M13 14h1M18 14h1M13 15h1M18 15h1" />
<path stroke="#154237" d="M10 21h2M20 21h2M9 22h3M20 22h3M9 23h3M20 23h3M8 30h1M23 30h1" />
<path stroke="#874b31" d="M12 21h1M19 21h1M12 22h2M18 22h2M12 23h8M13 24h6" />
<path stroke="#235c44" d="M8 24h5M19 24h5M6 25h20M4 26h24M4 27h24M3 28h26M3 29h26M3 30h5M9 30h14M24 30h5" />
</svg>