<svg xmlns="http://www.w3.org/2000/svg" viewBox="0 -0.5 32 32" shape-rendering="crispEdges">
<metadata>Made with Pixels to Svg https://codepen.io/shshaw/pen/XbxvNj</metadata>
<path stroke="#311a10" d="M14 6h5M12 7h8M11 8h10M10 9h12M10 10h13M9 11h9M20 11h2M9 12h6M21 12h1M9 13h3M21 13h1M10 14h1M21 14h1M10 15h1M21 15h1M10 16h1M21 16h1M10 17h1M21 17h1M10 18h1M21 18h1M11 19h1M20 19h1M11 20h1M20 20h1M12 21h1M19 21h1M13 22h1M18 22h1M14 23h4" />
<path stroke="#ad7044" d="M18 11h2M15 12h6M12 13h9M11 14h10M11 15h2M14 15h4M19 15h2M11 16h2M14 16h4M19 16h2M11 17h10M11 18h10M12 19h8M12 20h8M13 21h6M14 22h4" />
<path stroke="#0d171f" d="M13 15h1M18 15h1M13 16h1M18 16h1" />
<path stroke="#915237" d="M12 22h1M19 22h1M12 23h2M18 23h2M12 24h8M13 25h6" />
<path stroke="#e68d3e" d="M9 24h3M20 24h3M7 25h6M19 25h6M6 26h20M5 27h22M5 28h22M4 29h24M4 30h4M9 30h14M24 30h4" />
<path stroke="#d16630" d="M8 30h1M23 30h1" />
</svg>